<svg xmlns="http://www.w3.org/2000/svg" xmlns:xlink="http://www.w3.org/1999/xlink"><defs><path id="a" d="M1746.98 1950.371l-.007-.022a.6.6 0 0 0-.034-.102l-.02-.035a.785.785 0 0 0-.045-.077c-.01-.014-.023-.026-.034-.039-.017-.02-.033-.04-.052-.058l-.01-.01-4.663-3.86a.682.682 0 0 0-.942.04.632.632 0 0 0 .041.912l3.4 2.738h-12.942a.656.656 0 0 0-.666.645c0 .357.298.646.666.646h12.943l-3.4 2.738a.632.632 0 0 0-.042.912c.132.14.311.21.492.21a.676.676 0 0 0 .45-.17l4.663-3.86.01-.01c.02-.018.035-.038.053-.058.011-.014.023-.026.033-.04a.729.729 0 0 0 .045-.076l.02-.035a.625.625 0 0 0 .034-.103l.007-.021a.637.637 0 0 0 0-.265z"/></defs><symbol id="arrow-left" viewBox="0 0 16 9"><path d="M0 4.6v.2l.1.1 4.7 3.9c.3.2.7.2.9 0 .2-.3.2-.7 0-.9L2.3 5.2h12.9c.4 0 .7-.3.7-.6 0-.4-.3-.6-.7-.6H2.3l3.4-2.7c.3-.2.3-.6.1-.9-.1-.1-.3-.2-.5-.2s-.3.1-.4.2L.2 4.3l-.1.1v.2c-.1-.1-.1-.1-.1 0z"/></symbol><symbol id="arrow-right" viewBox="0 0 16 9"><use fill="currentColor" xlink:href="#a" transform="translate(-1731 -1946)"/></symbol><symbol id="back"><path d="M9.4 1.5c-1.9 0-4 .3-6.3 1L.6.1C.4-.1.2 0 0 .1c-.1.1-.1.2-.1.3v10.2c0 .2.2.4.4.4h10.3c.2 0 .4-.2.4-.4 0-.1 0-.2-.1-.3L8.2 7.6c1.8-.9 3.7-1.4 5.4-1.4 2.8 0 4.6 1.4 4.6 4.3 0 .5.8.5.8 0 0-5.9-3.7-9-9.6-9z"/></symbol><symbol id="calendar" viewBox="0 0 16 16"><path d="M16 1.7v3H0v-3c0-.2.1-.3.3-.3h2.3v-1c0-.2.1-.3.3-.3h2c.2 0 .3.1.3.3v1h5.3v-1c0-.2.1-.3.3-.3h2c.2 0 .3.1.3.3v1h2.3c.5-.1.6.1.6.3zM4.7.7H3.4v2h1.3v-2zm8 0h-1.3v2h1.3v-2zM16 5.3v10.3c0 .2-.1.3-.3.3H.4c-.2 0-.3-.1-.3-.3V5.3H16z"/></symbol><symbol id="clip" viewBox="0 0 11.7 11.8"><path d="M10.5.7c-1.4-1.1-3.4-.9-4.6.5L.6 7.7c-.9 1.1-.7 2.6.3 3.5 1.1.9 2.6.7 3.5-.3l5.1-6.2c.6-.7.5-1.7-.2-2.2-.6-.5-1.5-.4-2.1.2L3.4 7.3c-.1.2-.1.6.1.7.2.2.5.2.7 0L8 3.3c.2-.2.5-.2.7-.1.2.3.2.6.1.8l-5.1 6.2c-.5.6-1.5.7-2.1.2C.9 9.9.8 9 1.3 8.3l5.4-6.5c.8-1 2.2-1.1 3.1-.3 1 .8 1.1 2.2.3 3.2L6.3 9.3c-.1.2-.1.5.1.7.2.2.5.1.7-.1l3.8-4.6c1.2-1.4 1-3.4-.4-4.6z"/></symbol><symbol id="clock" viewBox="0 0 18 18"><path d="M18 9c0 5-4 9-9 9s-9-4-9-9 4-9 9-9 9 4 9 9zm-4.2 4.2l-3.5-3.5c.1-.2.2-.5.2-.8 0-.8-.7-1.5-1.5-1.5V4.8c0-.2-.2-.4-.4-.4s-.4.2-.4.4v2.8c-.7.4-1 1.3-.6 2s1.3 1 2 .6c0 0 .1 0 .1-.1l3.5 3.5c.1.2.4.2.5 0s.2-.2.1-.4z"/></symbol><symbol id="cross" viewBox="0 0 21.9 21.9"><path d="M14.1 11.3c-.2-.2-.2-.5 0-.7l7.5-7.5c.2-.2.3-.5.3-.7s-.1-.5-.3-.7L20.2.3c-.2-.2-.5-.3-.7-.3-.3 0-.5.1-.7.3l-7.5 7.5c-.2.2-.5.2-.7 0L3.1.3C2.9.1 2.6 0 2.4 0s-.5.1-.7.3L.3 1.7c-.2.2-.3.5-.3.7s.1.5.3.7l7.5 7.5c.2.2.2.5 0 .7L.3 18.8c-.2.2-.3.5-.3.7s.1.5.3.7l1.4 1.4c.2.2.5.3.7.3s.5-.1.7-.3l7.5-7.5c.2-.2.5-.2.7 0l7.5 7.5c.2.2.5.3.7.3s.5-.1.7-.3l1.4-1.4c.2-.2.3-.5.3-.7s-.1-.5-.3-.7l-7.5-7.5z"/></symbol><symbol id="dots" viewBox="0 0 512 512"><path fill="currentColor" d="M304 256c0 26.5-21.5 48-48 48s-48-21.5-48-48 21.5-48 48-48 48 21.5 48 48zm120-48c-26.5 0-48 21.5-48 48s21.5 48 48 48 48-21.5 48-48-21.5-48-48-48zm-336 0c-26.5 0-48 21.5-48 48s21.5 48 48 48 48-21.5 48-48-21.5-48-48-48z"/></symbol><symbol id="edit" viewBox="0 0 528.899 528.899"><path d="M328.883 89.125l107.59 107.589-272.34 272.34L56.604 361.465l272.279-272.34zm189.23-25.948l-47.981-47.981c-18.543-18.543-48.653-18.543-67.259 0l-45.961 45.961 107.59 107.59 53.611-53.611c14.382-14.383 14.382-37.577 0-51.959zM.3 512.69c-1.958 8.812 5.998 16.708 14.811 14.565l119.891-29.069L27.473 390.597.3 512.69z"/></symbol><symbol id="envelope-circle" viewBox="0 0 33.5 33.5"><path d="M16.8 33.5C7.5 33.5 0 26 0 16.8S7.5 0 16.8 0s16.8 7.5 16.8 16.8S26 33.5 16.8 33.5zm0-32.5C8.1 1 1 8.1 1 16.8s7.1 15.8 15.8 15.8 15.8-7.1 15.8-15.8S25.4 1 16.8 1z"/><path d="M23.9 22.8H9.6c-.9 0-1.6-.8-1.6-1.7v-8.7c0-.9.8-1.7 1.7-1.7h14.2c.9 0 1.7.8 1.7 1.7v8.7c-.1.9-.8 1.7-1.7 1.7zM9.6 11.7c-.3 0-.6.3-.6.7v8.7c0 .4.3.7.7.7h14.2c.4 0 .7-.3.7-.7v-8.7c0-.4-.3-.7-.7-.7H9.6z"/><path d="M16.8 18.4c-.1 0-.2 0-.3-.1l-8-6.3c-.2-.2-.3-.5-.1-.7.2-.2.5-.3.7-.1l7.6 6.1 7.6-6.1c.2-.2.5-.1.7.1.2.2.1.5-.1.7L17 18.3c0 .1-.1.1-.2.1z"/></symbol><symbol id="envelope" viewBox="0 0 512 512"><path fill="currentColor" d="M502.3 190.8c3.9-3.1 9.7-.2 9.7 4.7V400c0 26.5-21.5 48-48 48H48c-26.5 0-48-21.5-48-48V195.6c0-5 5.7-7.8 9.7-4.7 22.4 17.4 52.1 39.5 154.1 113.6 21.1 15.4 56.7 47.8 92.2 47.6 35.7.3 72-32.8 92.3-47.6 102-74.1 131.6-96.3 154-113.7zM256 320c23.2.4 56.6-29.2 73.4-41.4 132.7-96.3 142.8-104.7 173.4-128.7 5.8-4.5 9.2-11.5 9.2-18.9v-19c0-26.5-21.5-48-48-48H48C21.5 64 0 85.5 0 112v19c0 7.4 3.4 14.3 9.2 18.9 30.6 23.9 40.7 32.4 173.4 128.7 16.8 12.2 50.2 41.8 73.4 41.4z"/></symbol><symbol id="equal" viewBox="0 0 121.805 121.805"><path d="M7.308 85.264h107.188c4.037 0 7.309-3.271 7.309-7.31s-3.271-7.309-7.309-7.309H7.308C3.271 70.646 0 73.916 0 77.954s3.271 7.31 7.308 7.31zM7.308 51.158h107.188a7.309 7.309 0 1 0 0-14.617H7.308A7.307 7.307 0 0 0 0 43.849a7.308 7.308 0 0 0 7.308 7.309z"/></symbol><symbol id="flag" viewBox="0 0 60 60"><path d="M53.747 35.323L44.17 20l9.668-15.47A1 1 0 0 0 52.99 3h-45V1a1 1 0 1 0-2 0v58a1 1 0 1 0 2 0V37h45.02a1 1 0 0 0 .737-1.677z"/></symbol><symbol id="menu" viewBox="0 0 24 24"><path d="M24 3c0-.6-.4-1-1-1H1c-.6 0-1 .4-1 1v2c0 .6.4 1 1 1h22c.6 0 1-.4 1-1V3zM24 11c0-.6-.4-1-1-1H1c-.6 0-1 .4-1 1v2c0 .6.4 1 1 1h22c.6 0 1-.4 1-1v-2zM24 19c0-.6-.4-1-1-1H1c-.6 0-1 .4-1 1v2c0 .6.4 1 1 1h22c.6 0 1-.4 1-1v-2z"/></symbol><symbol id="minus-thin" viewBox="0 0 42 42"><path d="M0 19h42v4H0z"/></symbol><symbol id="plus-thin" viewBox="0 0 42 42"><path d="M42 19H23V0h-4v19H0v4h19v19h4V23h19z"/></symbol><symbol id="plus" viewBox="0 0 491.86 491.86"><path d="M465.167 211.614H280.245V26.691c0-8.424-11.439-26.69-34.316-26.69s-34.316 18.267-34.316 26.69v184.924H26.69C18.267 211.614 0 223.053 0 245.929s18.267 34.316 26.69 34.316h184.924v184.924c0 8.422 11.438 26.69 34.316 26.69s34.316-18.268 34.316-26.69V280.245H465.17c8.422 0 26.69-11.438 26.69-34.316s-18.27-34.315-26.693-34.315z"/></symbol><symbol id="print" viewBox="0 0 18.9 15.2"><style>.st0{fill:#fff}</style><path d="M15.2 4.4H3.6V0h11.6v4.4zm-10.6-1h9.6V1H4.6v2.4z"/><path d="M16.9 13.4h-2.2v-1h2.2c.5 0 1-.4 1-1v-6c0-.5-.4-1-1-1H2c-.5 0-1 .4-1 1v6c0 .5.4 1 1 1h2.1v1H2c-1.1 0-2-.9-2-2v-6c0-1.1.9-2 2-2h14.9c1.1 0 2 .9 2 2v6c0 1.1-.9 2-2 2z"/><path d="M15.2 15.2H5.7l-2.1-2.1V7.4h11.6v7.8zm-9.1-1h8.1V8.4H4.6v4.3l1.5 1.5z"/><path d="M5.9 12.9H4.1l1.8 1.9z"/><path class="st0" d="M5.4 9.7h8"/><path d="M5.4 9.2h8v1h-8z"/><g><path class="st0" d="M5.4 11.7h8"/><path d="M5.4 11.2h8v1h-8z"/></g></symbol><symbol id="side-menu" viewBox="0 0 17 14"><path d="M0 1c0-.6.4-1 1-1h15c.6 0 1 .4 1 1s-.4 1-1 1H1c-.5 0-1-.4-1-1zm17 4c0 .6-.4 1-1 1H1c-.6 0-1-.4-1-1s.4-1 1-1h15.1c.5 0 .9.4.9 1zm0 4c0 .6-.4 1-1 1H1c-.6 0-1-.4-1-1s.4-1 1-1h15.1c.5 0 .9.4.9 1zm0 4c0 .6-.4 1-1 1H1c-.6 0-1-.4-1-1s.4-1 1-1h15.1c.5 0 .9.4.9 1z"/></symbol><symbol id="star" viewBox="0 0 18 18"><path d="M18 9c0 5-4 9-9 9s-9-4-9-9 4-9 9-9 9 4 9 9zm-3.4-2c-.1-.1-.2-.2-.4-.2h-3.5L9.3 3.3c-.1-.2-.3-.3-.5-.2-.1 0-.2.1-.2.2L7.2 6.8H3.7c-.2 0-.4.2-.4.4 0 .1 0 .2.1.3L6.2 10l-1.1 3.9c-.1.2.1.4.3.5.1 0 .2 0 .3-.1l3.1-2.4 3.1 2.4c.2.1.4.1.5-.1.1-.1.1-.2.1-.3L11.4 10l2.8-2.5c.4-.2.5-.4.4-.5z"/></symbol><symbol id="todo-circle" viewBox="0 0 33.5 33.5"><path d="M16.8 33.5C7.5 33.5 0 26 0 16.8S7.5 0 16.8 0s16.8 7.5 16.8 16.8S26 33.5 16.8 33.5zm0-32.5C8.1 1 1 8.1 1 16.8s7.1 15.8 15.8 15.8 15.8-7.1 15.8-15.8S25.4 1 16.8 1z"/><path d="M24.5 22.8H9c-.7 0-1.2-.6-1.2-1.2V12c0-.7.6-1.2 1.2-1.2h15.6c.7 0 1.2.6 1.2 1.2v9.6c0 .6-.6 1.2-1.3 1.2zM9 11.7c-.1 0-.2.1-.2.2v9.6c0 .1.1.2.2.2h15.6c.1 0 .2-.1.2-.2V12c0-.1-.1-.2-.2-.2H9z"/><path d="M12.2 16.3c-.1 0-.3 0-.4-.1l-.8-.8c-.2-.2-.2-.5 0-.7s.5-.2.7 0l.5.5 1.3-1.3c.2-.2.5-.2.7 0s.2.5 0 .7l-1.6 1.6c-.1 0-.2.1-.4.1zM22.1 15.5h-5.9c-.3 0-.5-.2-.5-.5s.2-.5.5-.5h5.9c.3 0 .5.2.5.5s-.2.5-.5.5z"/><g><path d="M12.2 19.9c-.1 0-.3 0-.4-.1L11 19c-.2-.2-.2-.5 0-.7s.5-.2.7 0l.5.5 1.3-1.3c.2-.2.5-.2.7 0s.2.5 0 .7l-1.6 1.6c-.1.1-.2.1-.4.1zM22.1 19.1h-5.9c-.3 0-.5-.2-.5-.5s.2-.5.5-.5h5.9c.3 0 .5.2.5.5s-.2.5-.5.5z"/></g></symbol><symbol id="up" viewBox="0 0 18 18"><path d="M9.2.1l8.6 6.7c.3.2.1.7-.2.7H15v10.1c0 .2-.2.4-.4.4H7.8c-.1 0-.2 0-.3-.1L3 13.4c-.1-.1-.1-.2-.1-.3V7.5H.3c-.2 0-.4-.2-.4-.4 0-.1.1-.2.1-.3L8.6.1c.3-.1.5-.1.6 0zM3.7 12.7l4.5 4.5v-4.5H3.7z"/></symbol><symbol id="upload" viewBox="0 0 25 25"><path d="M20.6 25H4.4C2 25 0 23 0 20.6v-1.9c0-.8.7-1.5 1.5-1.5s1.5.7 1.5 1.5v1.9c0 .8.6 1.4 1.4 1.4h16.3c.8 0 1.4-.6 1.4-1.4v-1.9c0-.8.7-1.5 1.5-1.5s1.5.7 1.5 1.5v1.9C25 23 23 25 20.6 25z"/><path d="M12.5 18.1c-.8 0-1.5-.7-1.5-1.5V1.5c0-.8.7-1.5 1.5-1.5S14 .7 14 1.5v15.1c0 .8-.7 1.5-1.5 1.5z"/><path d="M19.5 10c-.4 0-.8-.1-1.1-.4l-5.9-5.9-5.9 5.9c-.6.5-1.6.5-2.2 0-.5-.6-.5-1.6 0-2.2l7-7c.6-.6 1.5-.6 2.1 0l7 7c.6.6.6 1.5 0 2.1-.2.4-.6.5-1 .5z"/></symbol></svg>