<?xml version="1.0" encoding="utf-8"?>
<!-- Generator: Adobe Illustrator 22.1.0, SVG Export Plug-In . SVG Version: 6.00 Build 0)  -->
<svg version="1.1" id="Слой_1" xmlns="http://www.w3.org/2000/svg" xmlns:xlink="http://www.w3.org/1999/xlink" x="0px" y="0px"
	 viewBox="0 0 16 9" style="enable-background:new 0 0 16 9;" xml:space="preserve">
<g>
	<g transform="translate(-1731 -1946)">
		<g>
			<path id="veeba" d="M1731,1950.6L1731,1950.6c0,0.1,0,0.1,0,0.1l0,0c0,0,0,0.1,0,0.1c0,0,0,0,0,0c0,0,0,0,0.1,0.1l0,0l4.7,3.9
				c0.3,0.2,0.7,0.2,0.9,0c0.2-0.3,0.2-0.7,0-0.9c0,0,0,0,0,0l-3.4-2.7h12.9c0.4,0,0.7-0.3,0.7-0.6c0-0.4-0.3-0.6-0.7-0.6h-12.9
				l3.4-2.7c0.3-0.2,0.3-0.6,0.1-0.9c0,0,0,0,0,0c-0.1-0.1-0.3-0.2-0.5-0.2c-0.2,0-0.3,0.1-0.4,0.2l-4.7,3.9l0,0c0,0,0,0-0.1,0.1
				c0,0,0,0,0,0c0,0,0,0,0,0.1l0,0c0,0,0,0.1,0,0.1l0,0C1731,1950.5,1731,1950.5,1731,1950.6L1731,1950.6z"/>
		</g>
	</g>
</g>
</svg>
