<svg xmlns="http://www.w3.org/2000/svg" xmlns:xlink="http://www.w3.org/1999/xlink"  viewBox="0 0 16 9"><defs><path id="veeba" d="M1746.98 1950.371l-.007-.022a.6.6 0 0 0-.034-.102l-.02-.035a.785.785 0 0 0-.045-.077c-.01-.014-.023-.026-.034-.039-.017-.02-.033-.04-.052-.058l-.01-.01-4.663-3.86a.682.682 0 0 0-.942.04.632.632 0 0 0 .041.912l3.4 2.738h-12.942a.656.656 0 0 0-.666.645c0 .357.298.646.666.646h12.943l-3.4 2.738a.632.632 0 0 0-.042.912c.132.14.311.21.492.21a.676.676 0 0 0 .45-.17l4.663-3.86.01-.01c.02-.018.035-.038.053-.058.011-.014.023-.026.033-.04a.729.729 0 0 0 .045-.076l.02-.035a.625.625 0 0 0 .034-.103l.007-.021a.637.637 0 0 0 0-.265z"/></defs><g><g transform="translate(-1731 -1946)"><use fill="currentColor" xlink:href="#veeba"/></g></g></svg>
