<!-- Generator: Adobe Illustrator 22.1.0, SVG Export Plug-In  -->
<svg version="1.1"
     xmlns="http://www.w3.org/2000/svg" xmlns:xlink="http://www.w3.org/1999/xlink" xmlns:a="http://ns.adobe.com/AdobeSVGViewerExtensions/3.0/"
     x="0px" y="0px" viewBox="0 0 11.7 11.8"
     style="overflow:scroll;enable-background:new 0 0 11.7 11.8;" xml:space="preserve">
<defs>
</defs>
  <path d="M10.5,0.7C9.1-0.4,7.1-0.2,5.9,1.2L0.6,7.7c-0.9,1.1-0.7,2.6,0.3,3.5c1.1,0.9,2.6,0.7,3.5-0.3l5.1-6.2C10.1,4,10,3,9.3,2.5
	C8.7,2,7.8,2.1,7.2,2.7L3.4,7.3C3.3,7.5,3.3,7.9,3.5,8C3.7,8.2,4,8.2,4.2,8L8,3.3c0.2-0.2,0.5-0.2,0.7-0.1C8.9,3.5,8.9,3.8,8.8,4
	c0,0-5.1,6.2-5.1,6.2c-0.5,0.6-1.5,0.7-2.1,0.2C0.9,9.9,0.8,9,1.3,8.3l5.4-6.5c0.8-1,2.2-1.1,3.1-0.3c1,0.8,1.1,2.2,0.3,3.2L6.3,9.3
	C6.2,9.5,6.2,9.8,6.4,10c0.2,0.2,0.5,0.1,0.7-0.1l3.8-4.6C12.1,3.9,11.9,1.9,10.5,0.7z"/>
</svg>
