<svg xmlns="http://www.w3.org/2000/svg" viewBox="0 0 33.5 33.5" overflow="scroll"><path d="M16.8 33.5C7.5 33.5 0 26 0 16.8S7.5 0 16.8 0s16.8 7.5 16.8 16.8S26 33.5 16.8 33.5zm0-32.5C8.1 1 1 8.1 1 16.8s7.1 15.8 15.8 15.8 15.8-7.1 15.8-15.8S25.4 1 16.8 1z"/><path d="M23.9 22.8H9.6c-.9 0-1.6-.8-1.6-1.7v-8.7c0-.9.8-1.7 1.7-1.7h14.2c.9 0 1.7.8 1.7 1.7v8.7c-.1.9-.8 1.7-1.7 1.7zM9.6 11.7c-.3 0-.6.3-.6.7v8.7c0 .4.3.7.7.7h14.2c.4 0 .7-.3.7-.7v-8.7c0-.4-.3-.7-.7-.7H9.6z"/><path d="M16.8 18.4c-.1 0-.2 0-.3-.1l-8-6.3c-.2-.2-.3-.5-.1-.7.2-.2.5-.3.7-.1l7.6 6.1 7.6-6.1c.2-.2.5-.1.7.1.2.2.1.5-.1.7L17 18.3c0 .1-.1.1-.2.1z"/></svg>
