<!-- Generator: Adobe Illustrator 22.1.0, SVG Export Plug-In  -->
<svg version="1.1"
     xmlns="http://www.w3.org/2000/svg" xmlns:xlink="http://www.w3.org/1999/xlink" xmlns:a="http://ns.adobe.com/AdobeSVGViewerExtensions/3.0/"
     x="0px" y="0px" viewBox="0 0 33.5 33.5"
     style="overflow:scroll;enable-background:new 0 0 33.5 33.5;" xml:space="preserve">
<defs>
</defs>
  <path d="M16.8,33.5C7.5,33.5,0,26,0,16.8S7.5,0,16.8,0s16.8,7.5,16.8,16.8S26,33.5,16.8,33.5z M16.8,1C8.1,1,1,8.1,1,16.8
	s7.1,15.8,15.8,15.8s15.8-7.1,15.8-15.8S25.4,1,16.8,1z"/>
  <path d="M24.5,22.8H9c-0.7,0-1.2-0.6-1.2-1.2V12c0-0.7,0.6-1.2,1.2-1.2h15.6c0.7,0,1.2,0.6,1.2,1.2v9.6
	C25.8,22.2,25.2,22.8,24.5,22.8z M9,11.7c-0.1,0-0.2,0.1-0.2,0.2v9.6c0,0.1,0.1,0.2,0.2,0.2h15.6c0.1,0,0.2-0.1,0.2-0.2V12
	c0-0.1-0.1-0.2-0.2-0.2H9z"/>
  <g>
	<path d="M12.2,16.3c-0.1,0-0.3,0-0.4-0.1l-0.8-0.8c-0.2-0.2-0.2-0.5,0-0.7s0.5-0.2,0.7,0l0.5,0.5l1.3-1.3c0.2-0.2,0.5-0.2,0.7,0
		s0.2,0.5,0,0.7l-1.6,1.6C12.5,16.2,12.4,16.3,12.2,16.3z"/>
    <path d="M22.1,15.5h-5.9c-0.3,0-0.5-0.2-0.5-0.5s0.2-0.5,0.5-0.5h5.9c0.3,0,0.5,0.2,0.5,0.5S22.4,15.5,22.1,15.5z"/>
</g>
  <g>
	<path d="M12.2,19.9c-0.1,0-0.3,0-0.4-0.1l-0.8-0.8c-0.2-0.2-0.2-0.5,0-0.7s0.5-0.2,0.7,0l0.5,0.5l1.3-1.3c0.2-0.2,0.5-0.2,0.7,0
		s0.2,0.5,0,0.7l-1.6,1.6C12.5,19.9,12.4,19.9,12.2,19.9z"/>
    <path d="M22.1,19.1h-5.9c-0.3,0-0.5-0.2-0.5-0.5s0.2-0.5,0.5-0.5h5.9c0.3,0,0.5,0.2,0.5,0.5S22.4,19.1,22.1,19.1z"/>
</g>
</svg>
