<!-- Generator: Adobe Illustrator 22.1.0, SVG Export Plug-In  -->
<svg version="1.1"
     xmlns="http://www.w3.org/2000/svg" xmlns:xlink="http://www.w3.org/1999/xlink" xmlns:a="http://ns.adobe.com/AdobeSVGViewerExtensions/3.0/"
     x="0px" y="0px" viewBox="0 0 25 25" style="enable-background:new 0 0 25 25;" xml:space="preserve">
<defs>
</defs>
  <g>
	<path d="M20.6,25H4.4C2,25,0,23,0,20.6v-1.9c0-0.8,0.7-1.5,1.5-1.5S3,17.9,3,18.7v1.9C3,21.4,3.6,22,4.4,22h16.3
		c0.8,0,1.4-0.6,1.4-1.4v-1.9c0-0.8,0.7-1.5,1.5-1.5s1.5,0.7,1.5,1.5v1.9C25,23,23,25,20.6,25z"/>
    <path d="M12.5,18.1c-0.8,0-1.5-0.7-1.5-1.5V1.5C11,0.7,11.7,0,12.5,0S14,0.7,14,1.5v15.1C14,17.4,13.3,18.1,12.5,18.1z"/>
    <path d="M19.5,10c-0.4,0-0.8-0.1-1.1-0.4l-5.9-5.9L6.6,9.6C6,10.1,5,10.1,4.4,9.6C3.9,9,3.9,8,4.4,7.4l7-7c0.6-0.6,1.5-0.6,2.1,0
		l7,7c0.6,0.6,0.6,1.5,0,2.1C20.3,9.9,19.9,10,19.5,10z"/>
</g>
</svg>
